<svg xmlns="http://www.w3.org/2000/svg" viewBox="0 0 32 32"><defs><linearGradient id="pk" x1="0" y1="0" x2="0" y2="1"><stop offset="0" stop-color="#ffe000"/><stop offset="1" stop-color="#ffb300"/></linearGradient><clipPath id="pc"><rect width="32" height="32" rx="7"/></clipPath></defs><rect width="32" height="32" rx="7" fill="#0a0a0a"/><g clip-path="url(#pc)"><g transform="translate(9 2) scale(0.5)"><g transform="rotate(10 22.5 22.5)"><g transform="translate(45 0) scale(-1 1)"><g style="fill:#5b6ea0;stroke:#5b6ea0;stroke-width:1.5;stroke-linejoin:round;stroke-linecap:round;fill-rule:evenodd" transform="translate(0,0.3)"><path d="M 22,10 C 32.5,11 38.5,18 38,39 L 15,39 C 15,30 25,32.5 23,18"/><path d="M 24,18 C 24.38,20.91 18.45,25.37 16,27 C 13,29 13.18,31.34 11,31 C 9.958,30.06 12.41,27.96 11,28 C 10,28 11.19,29.23 10,30 C 9,30 5.997,31 6,26 C 6,24 12,14 12,14 C 12,14 13.89,12.1 14,10.5 C 13.27,9.506 13.5,8.5 13.5,7.5 C 14.5,6.5 16.5,10 16.5,10 L 18.5,10 C 18.5,10 19.28,8.008 21,7 C 22,7 22,10 22,10"/><path d="M 9.5 25.5 A 0.5 0.5 0 1 1 8.5,25.5 A 0.5 0.5 0 1 1 9.5 25.5 z" style="fill:#0a0a0a;stroke:none"/><path d="M 15 15.5 A 0.5 1.5 0 1 1 14,15.5 A 0.5 1.5 0 1 1 15 15.5 z" transform="matrix(0.866,0.5,-0.5,0.866,9.693,-5.173)" style="fill:#0a0a0a;stroke:none"/></g></g></g></g><g transform="translate(-3 0)"><g fill="url(#pk)"><path d="M12.4 11.4 L8.6 3.5 L15.4 8.6 Z"/><path d="M19.6 11.4 L23.4 3.5 L16.6 8.6 Z"/><ellipse cx="16" cy="15" rx="7.6" ry="6.6"/></g><circle cx="10" cy="16.6" r="1.9" fill="#ff3b30"/><circle cx="22" cy="16.6" r="1.9" fill="#ff3b30"/></g></g></svg>
